<?xml version="1.0" encoding="utf-8"?>
<!-- Generator: Adobe Illustrator 22.0.1, SVG Export Plug-In . SVG Version: 6.00 Build 0)  -->
<svg version="1.1" id="Calque_1" xmlns="http://www.w3.org/2000/svg" xmlns:xlink="http://www.w3.org/1999/xlink" x="0px" y="0px"
	 viewBox="0 0 1000 241.8" style="enable-background:new 0 0 1000 241.8;" xml:space="preserve">
<style type="text/css">
	.st0{fill:#FFFFFF;}
	.st1{fill:#D6A950;}
</style>
<g>
	<g>
		<g>
			<g>
				<path class="st0" d="M345.9,90.3V42.1h3.1v45.2h24.1v3.1L345.9,90.3L345.9,90.3z"/>
				<path class="st0" d="M373.6,90.8h-28.2V41.6h4.1v45.2h24.1V90.8z M346.4,89.9h26.3v-2.2h-24.1V42.5h-2.2L346.4,89.9L346.4,89.9z
					"/>
			</g>
			<g>
				<path class="st0" d="M435.5,91.1L426,70.2h-24.5l-9.4,20.9l-3.1-1.5l24.8-54.9l24.9,54.9L435.5,91.1z M403.2,66.7h21.3
					l-10.6-23.5L403.2,66.7z"/>
				<path class="st0" d="M392.4,91.8l-4-1.9l0.2-0.4l25.3-55.9l25.5,56.3l-4.1,1.9l-9.5-21.1h-23.9L392.4,91.8z M401.2,69.7h25.1
					l9.4,20.8l2.3-1.1l-24.3-53.5l-24.2,53.5l2.3,1.1L401.2,69.7z M425.2,67.2h-22.7L413.8,42L425.2,67.2z M403.9,66.2h19.8
					l-9.9-21.8L403.9,66.2z"/>
			</g>
			<g>
				<path class="st0" d="M481,80.8c0,1.4,0,2.7,0,4.1s0,2.8-0.1,4.2v0.1v0.1c0,0.3-0.1,0.6-0.1,0.9s-0.1,0.6-0.1,1v0.1v0.1
					c-0.1,0.5-0.2,0.9-0.3,1.3c-0.1,0.4-0.2,0.9-0.3,1.3l0,0v0.1c-0.1,0.2-0.1,0.4-0.1,0.5c-0.1,0.3-0.2,0.5-0.2,0.7
					c-0.9,2.6-2.4,4.8-4.3,6.6l-0.1,0.1l-0.1,0.1l-0.1,0.1c-0.1,0.1-0.2,0.2-0.3,0.2c-0.1,0.1-0.2,0.2-0.3,0.2
					c-0.3,0.2-0.6,0.5-0.9,0.7s-0.6,0.4-1,0.7c-0.7,0.4-1.4,0.7-2.2,1c-1.2,0.5-2.4,0.8-3.6,1.1s-2.6,0.4-4.1,0.5h-1.2
					c-0.5,0-1,0-1.6,0c-0.5,0-1.1-0.1-1.7-0.1l-0.1-0.1l-1.3-0.2c-1.9-0.3-3.9-1.1-5.9-2.3l-0.1-0.1c-0.2-0.1-0.3-0.2-0.3-0.2
					l-0.1-0.1l2-2.9c0.1,0.1,0.2,0.1,0.2,0.1c0.1,0.1,0.2,0.1,0.2,0.1c1.7,1,3.3,1.6,4.7,1.9l1.2,0.2c0.8,0.1,1.5,0.2,2.1,0.2
					s1.2,0,1.9,0c2.3-0.1,4.5-0.6,6.6-1.4c0.5-0.2,1-0.5,1.7-0.8c0.2-0.1,0.5-0.3,0.7-0.5c0.3-0.2,0.5-0.4,0.8-0.6
					c0,0,0.1-0.1,0.1-0.2c0.1,0,0.2-0.1,0.2-0.1c0.1,0,0.2-0.1,0.2-0.2c1.4-1.4,2.5-3.1,3.2-5.1c0.1-0.3,0.1-0.4,0.1-0.5l0.2-0.6
					c0.1-0.4,0.2-0.8,0.2-1.2c0.1-0.4,0.2-0.7,0.2-1.1c0-0.3,0.1-0.6,0.1-0.9s0.1-0.6,0.1-0.9c0-0.5,0-1,0-1.5s0-1,0.1-1.5l-0.2,0.2
					c-1.7,1.7-3.6,3-5.8,3.8c-2.2,0.9-4.4,1.3-6.8,1.3s-4.6-0.4-6.8-1.3c-2.1-0.9-4.1-2.2-5.8-3.8c-1.7-1.7-3-3.7-3.8-5.8
					c-0.9-2.1-1.3-4.4-1.3-6.8s0.4-4.7,1.3-6.8c0.9-2.2,2.2-4.1,3.8-5.8c1.7-1.7,3.7-3,5.8-3.9c2.1-0.9,4.4-1.4,6.8-1.4
					s4.7,0.5,6.8,1.4c2.2,0.9,4.1,2.2,5.8,3.9c0,0,0.1,0,0.2,0.1v-4.4h3.5v24.1H481z M464.7,87.9c2.8,0,5.3-0.7,7.6-2.2
					c2.3-1.4,4-3.4,5.2-5.7V69.8v-2.7c-1.2-2.3-2.9-4.2-5.2-5.7c-2.3-1.4-4.8-2.2-7.6-2.2c-2,0-3.8,0.4-5.5,1.1
					c-1.7,0.7-3.2,1.8-4.5,3.1c-1.3,1.3-2.3,2.8-3.1,4.6c-0.7,1.7-1.1,3.6-1.1,5.6s0.4,3.8,1.1,5.5s1.8,3.2,3.1,4.5
					c1.3,1.3,2.8,2.3,4.5,3.1C460.9,87.5,462.7,87.9,464.7,87.9z"/>
				<path class="st0" d="M461.6,107.1c-0.5,0-1.1,0-1.6,0s-1.1-0.1-1.7-0.1h-0.2l-0.1-0.1l-1.2-0.2c-2-0.3-4-1.1-6.1-2.4l-0.1-0.1
					c-0.1-0.1-0.3-0.1-0.3-0.2h-0.8l2.8-4.2l0.6,0.6l0,0l0.1,0.1c1.7,0.9,3.2,1.6,4.5,1.8l1.2,0.2c0.7,0.1,1.4,0.1,2.1,0.2
					c0.6,0,1.2,0,1.8,0c2.3-0.1,4.4-0.6,6.4-1.4c0.4-0.2,1-0.5,1.7-0.8c0.2-0.1,0.4-0.3,0.7-0.5c0.3-0.2,0.5-0.4,0.8-0.6l0.1-0.1
					l0.1-0.1c0.1,0,0.1-0.1,0.2-0.1c0,0,0.1-0.1,0.2-0.2c1.4-1.3,2.4-3,3.1-4.9c0.1-0.2,0.1-0.3,0.1-0.4l0.2-0.7
					c0.1-0.4,0.2-0.8,0.2-1.1c0.1-0.4,0.2-0.8,0.3-1.1c0-0.3,0.1-0.6,0.1-0.9s0.1-0.6,0.1-0.9v-1.4c0-0.1,0-0.2,0-0.3
					c-1.6,1.4-3.3,2.5-5.2,3.3c-4.4,1.8-9.6,1.8-14,0c-2.2-0.9-4.2-2.2-6-3.9c-1.7-1.8-3.1-3.8-4-6s-1.4-4.5-1.4-7
					c0-2.4,0.5-4.8,1.4-7s2.2-4.2,4-5.9s3.8-3.1,6-4c4.4-1.9,9.5-1.9,14,0c2,0.8,3.7,2,5.3,3.4v-3.8h4.5v28.6c0,1.4,0,2.8-0.1,4.2
					v0.2c0,0.3-0.1,0.6-0.1,0.9s-0.1,0.7-0.1,1v0.2c-0.1,0.5-0.2,0.9-0.3,1.4c-0.1,0.4-0.2,0.8-0.3,1.3v0.3
					c-0.1,0.2-0.1,0.2-0.1,0.3v0.2c-0.1,0.3-0.2,0.5-0.2,0.7c-1,2.7-2.4,5-4.4,6.8l-0.5-0.2l0.3,0.3l-0.1,0.1
					c-0.1,0.1-0.2,0.2-0.3,0.3c-0.1,0.1-0.2,0.1-0.2,0.2c-0.4,0.3-0.7,0.5-1,0.7s-0.7,0.4-1,0.7c-0.7,0.4-1.5,0.8-2.2,1.1
					c-1.2,0.5-2.5,0.9-3.7,1.1c-1.3,0.3-2.7,0.4-4.1,0.5L461.6,107.1z M458.5,106c0.5,0,1,0.1,1.5,0.1s1,0,1.6,0h1.2
					c1.4-0.1,2.7-0.3,4-0.5c1.2-0.2,2.4-0.6,3.6-1.1c0.7-0.3,1.4-0.7,2.1-1c0.3-0.2,0.7-0.4,1-0.6s0.6-0.4,0.9-0.7
					c0-0.1,0.2-0.2,0.3-0.2c0.1-0.1,0.2-0.1,0.2-0.2l0.3-0.3c1.8-1.7,3.2-3.9,4.1-6.4c0-0.1,0.1-0.4,0.2-0.6c0-0.2,0.1-0.3,0.1-0.5
					v-0.1c0.1-0.5,0.2-0.9,0.3-1.4c0.1-0.4,0.2-0.8,0.3-1.3c0-0.5,0.1-0.8,0.1-1.1c0-0.3,0.1-0.6,0.1-1c0-1.5,0.1-2.9,0.1-4.3V57.3
					H478v5.1l-0.8-0.8l0,0h-0.1l-0.1-0.1c-1.6-1.6-3.5-2.9-5.6-3.8c-4.2-1.8-9.1-1.8-13.2,0c-2.1,0.9-4,2.2-5.7,3.8
					c-1.6,1.6-2.9,3.5-3.7,5.6c-0.9,2.1-1.3,4.3-1.3,6.6c0,2.3,0.4,4.5,1.3,6.6s2.1,4,3.7,5.7c1.7,1.6,3.6,2.9,5.6,3.7
					c4.2,1.7,9,1.7,13.2,0c2.1-0.9,4-2.1,5.6-3.7l1.1-1.2V86c0,0.5-0.1,1-0.1,1.4v1.5c-0.1,0.3-0.1,0.6-0.1,0.9s-0.1,0.6-0.1,1
					c-0.1,0.4-0.2,0.8-0.2,1.1c-0.1,0.4-0.2,0.8-0.2,1.2l-0.2,0.6c0,0.1-0.1,0.2-0.2,0.5c-0.7,2.1-1.8,3.9-3.3,5.3
					c-0.1,0.1-0.2,0.2-0.3,0.3c-0.1,0-0.1,0.1-0.2,0.1c0,0.1-0.1,0.1-0.1,0.2c-0.4,0.2-0.6,0.4-0.9,0.6s-0.5,0.4-0.8,0.5
					c-0.7,0.4-1.3,0.7-1.8,0.9c-2.1,0.8-4.4,1.3-6.7,1.4c-0.6,0-1.3,0.1-1.9,0c-0.7,0-1.4-0.1-2.2-0.2l-1.2-0.2
					c-1.4-0.3-3-0.9-4.8-1.9c0,0-0.1,0-0.1-0.1l-1.4,2.1l0,0l0.1,0.1c2,1.2,3.9,1.9,5.8,2.2L458.5,106z M464.7,88.4
					c-2,0-3.9-0.4-5.7-1.2c-1.8-0.8-3.4-1.8-4.7-3.2c-1.3-1.3-2.4-2.9-3.2-4.7c-0.8-1.8-1.2-3.7-1.2-5.7s0.4-3.9,1.2-5.7
					c0.8-1.8,1.8-3.4,3.2-4.7c1.3-1.3,2.9-2.4,4.7-3.2c1.8-0.8,3.7-1.2,5.7-1.2c2.9,0,5.5,0.8,7.8,2.2c2.3,1.5,4.1,3.5,5.4,5.8
					L478,67v13.1c-1.2,2.4-3,4.4-5.3,5.9C470.2,87.6,467.6,88.4,464.7,88.4z M464.7,59.8c-1.9,0-3.7,0.4-5.3,1.1
					c-1.7,0.7-3.1,1.7-4.4,3s-2.3,2.7-3,4.4s-1.1,3.5-1.1,5.4s0.4,3.7,1.1,5.3c0.7,1.7,1.7,3.1,3,4.4s2.7,2.3,4.4,3
					c1.7,0.7,3.4,1.1,5.3,1.1c2.7,0,5.2-0.7,7.4-2.1c2.2-1.4,3.8-3.2,5-5.4V67.2c-1.2-2.2-2.8-4-5-5.4
					C469.9,60.5,467.4,59.8,464.7,59.8z"/>
			</g>
			<g>
				<path class="st0" d="M508.8,91.5c-2.4,0-4.7-0.5-6.9-1.4c-2.2-0.9-4.1-2.2-5.8-3.9c-1.7-1.7-3-3.7-4-5.8
					c-0.9-2.2-1.4-4.4-1.4-6.8s0.5-4.7,1.4-6.9c0.9-2.2,2.2-4.1,4-5.8c1.7-1.7,3.6-3,5.8-3.9c2.2-0.9,4.5-1.4,6.9-1.4
					c2.5,0,4.8,0.5,7,1.4s4.1,2.2,5.7,3.8s2.9,3.5,3.8,5.7c0.9,2.2,1.4,4.5,1.4,7v1.7h-32.2c0.2,1.8,0.8,3.4,1.6,5
					c0.8,1.5,1.9,2.9,3.1,4c1.3,1.1,2.7,2,4.4,2.7c1.7,0.7,3.4,1,5.2,1c2.6,0,5-0.6,7.2-1.9c2.2-1.3,4-3,5.3-5.3l3,1.7
					c-1.5,2.7-3.7,4.8-6.4,6.5C515.1,90.7,512.1,91.5,508.8,91.5z M494.4,71.9h28.7c-0.2-1.8-0.8-3.4-1.6-5s-1.9-2.9-3.1-4.1
					c-1.3-1.1-2.8-2-4.4-2.7c-1.7-0.7-3.4-1-5.2-1c-1.9,0-3.6,0.3-5.2,1s-3.1,1.6-4.4,2.7c-1.3,1.1-2.3,2.5-3.2,4.1
					C495.1,68.4,494.6,70.1,494.4,71.9z"/>
				<path class="st0" d="M508.8,92c-2.5,0-4.9-0.5-7.1-1.4s-4.2-2.3-5.9-4c-1.8-1.8-3.1-3.8-4.1-6c-0.9-2.2-1.4-4.6-1.4-7
					c0-2.5,0.5-4.9,1.4-7.1s2.3-4.2,4.1-6c1.7-1.7,3.7-3.1,5.9-4c4.5-1.9,9.8-1.9,14.2,0c2.2,1,4.2,2.3,5.8,3.9
					c1.7,1.7,3,3.6,3.9,5.9c1,2.2,1.4,4.7,1.4,7.2v2.2h-32c0.3,1.5,0.8,2.9,1.5,4.3c0.8,1.5,1.8,2.8,3,3.9s2.6,2,4.2,2.6
					s3.3,0.9,5,0.9c2.5,0,4.8-0.6,7-1.9c2.2-1.2,3.9-3,5.1-5.1L521,80l3.8,2.2l-0.2,0.4c-1.6,2.7-3.8,5-6.6,6.7
					C515.3,91.2,512.1,92,508.8,92z M508.8,56.1c-2.3,0-4.6,0.4-6.7,1.3c-2.1,0.9-4,2.2-5.6,3.8c-1.7,1.7-3,3.6-3.8,5.7
					c-0.9,2.1-1.3,4.4-1.3,6.7c0,2.3,0.4,4.5,1.3,6.6s2.2,4,3.8,5.7c1.6,1.6,3.5,2.9,5.6,3.8s4.4,1.3,6.7,1.3c3.2,0,6.2-0.8,8.8-2.4
					c2.5-1.5,4.5-3.5,6-5.9l-2.2-1.3c-1.3,2.1-3.1,3.8-5.2,5c-2.3,1.3-4.8,2-7.4,2c-1.9,0-3.7-0.3-5.4-1c-1.7-0.7-3.2-1.6-4.5-2.8
					c-1.3-1.2-2.4-2.6-3.2-4.1c-0.9-1.6-1.4-3.3-1.7-5.1l-0.1-0.5h32.3v-1.3c0-2.4-0.5-4.7-1.4-6.8c-0.9-2.1-2.2-4-3.7-5.6
					c-1.6-1.6-3.4-2.8-5.5-3.7C513.4,56.6,511.1,56.1,508.8,56.1z M523.6,72.4h-29.8l0.1-0.5c0.2-1.8,0.7-3.6,1.6-5.2s2-3,3.3-4.2
					s2.8-2.1,4.5-2.8c3.3-1.3,7.4-1.4,10.8,0c1.7,0.7,3.2,1.6,4.5,2.8s2.4,2.6,3.3,4.2c0.8,1.6,1.4,3.3,1.6,5.2L523.6,72.4z
					 M495,71.4h27.6c-0.3-1.5-0.7-3-1.4-4.3c-0.8-1.5-1.8-2.8-3-3.9s-2.7-2-4.3-2.6c-3.2-1.3-7-1.2-10.1,0c-1.6,0.6-3,1.5-4.2,2.6
					s-2.3,2.4-3.1,3.9C495.7,68.5,495.2,69.9,495,71.4z"/>
			</g>
			<g>
				<path class="st0" d="M564,60.1c1.5,1.5,2.6,3.2,3.4,5.1c0.8,1.9,1.2,3.9,1.2,6v19.1h-3.5v-19c0-1.7-0.3-3.3-0.9-4.8
					c-0.6-1.5-1.5-2.8-2.6-3.9c-1.1-1.1-2.4-2-3.9-2.6c-1.5-0.7-3.1-1-4.8-1h-0.1c-1.7,0-3.3,0.3-4.8,1s-2.8,1.5-3.9,2.6
					c-1.1,1.1-2,2.4-2.6,3.9c-0.7,1.5-1,3.1-1,4.8v19.1H537v-0.8V56.8h3.5v4.6c0.2-0.2,0.4-0.4,0.5-0.6c0.2-0.2,0.4-0.4,0.6-0.6
					c1.5-1.5,3.2-2.6,5.1-3.4c1.9-0.8,3.9-1.2,6-1.2h0.1c2.1,0,4.1,0.4,6,1.2C560.8,57.5,562.5,58.6,564,60.1z"/>
				<path class="st0" d="M569.1,90.8h-4.5V71.3c0-1.6-0.3-3.1-0.9-4.6c-0.6-1.4-1.4-2.7-2.5-3.7c-1.1-1-2.3-1.9-3.8-2.5
					c-1.4-0.6-3-0.9-4.6-0.9c-1.7,0-3.2,0.3-4.6,0.9c-1.4,0.6-2.7,1.5-3.7,2.5c-1,1-1.9,2.3-2.5,3.7s-0.9,3-0.9,4.6v19.6h-4.5V56.3
					h4.5v3.8c0.1-0.1,0.2-0.2,0.3-0.3c1.5-1.5,3.3-2.7,5.3-3.5s4-1.2,6.2-1.2s4.3,0.4,6.3,1.2s3.7,2,5.3,3.5l0,0
					c1.5,1.5,2.7,3.3,3.5,5.3s1.2,4,1.2,6.2L569.1,90.8L569.1,90.8z M565.6,89.9h2.5V71.3c0-2-0.4-4-1.2-5.8
					c-0.8-1.8-1.9-3.5-3.3-4.9c-1.4-1.4-3.1-2.6-4.9-3.3c-1.8-0.8-3.8-1.2-5.8-1.2c-2.1,0-4.1,0.4-5.9,1.2c-1.8,0.8-3.5,1.9-4.9,3.3
					c-0.2,0.2-0.4,0.4-0.6,0.6c-0.2,0.2-0.3,0.4-0.5,0.6l-0.9,1.1v-5.5h-2.5V90h2.5V71.3c0-1.7,0.3-3.4,1-4.9s1.6-2.9,2.7-4
					c1.1-1.1,2.5-2,4-2.7s3.2-1,4.9-1c1.8,0,3.5,0.3,5,1s2.9,1.6,4.1,2.7c1.2,1.1,2.1,2.5,2.7,4c0.7,1.5,1,3.2,1,4.9v18.6H565.6z"/>
			</g>
			<g>
				<path class="st0" d="M596.2,91.4c-2.4,0-4.7-0.4-6.9-1.3s-4.1-2.2-5.8-3.9c-1.7-1.7-3-3.6-3.9-5.8c-0.9-2.2-1.4-4.4-1.4-6.8
					s0.5-4.6,1.4-6.8c0.9-2.2,2.2-4.1,3.9-5.8s3.6-3,5.8-3.8c2.2-0.9,4.5-1.3,6.9-1.3s4.7,0.4,6.8,1.3c2.2,0.9,4.1,2.2,5.8,3.8
					l-2.4,2.5c-1.4-1.4-2.9-2.4-4.7-3.1c-1.7-0.7-3.6-1.1-5.5-1.1c-2,0-3.8,0.4-5.6,1.1c-1.7,0.7-3.3,1.8-4.6,3.1s-2.3,2.8-3.1,4.6
					c-0.8,1.7-1.2,3.6-1.2,5.6s0.4,3.8,1.2,5.6c0.8,1.7,1.8,3.3,3.1,4.6c1.3,1.3,2.8,2.3,4.6,3.1c1.7,0.7,3.6,1.1,5.6,1.1
					c1.9,0,3.7-0.4,5.5-1.1c1.7-0.7,3.3-1.8,4.7-3.1l2.4,2.5c-1.7,1.7-3.6,3-5.8,3.8C600.9,90.9,598.6,91.4,596.2,91.4z"/>
				<path class="st0" d="M596.2,91.9c-2.4,0-4.8-0.5-7-1.4s-4.2-2.3-6-4c-1.7-1.7-3.1-3.7-4-5.9c-0.9-2.2-1.4-4.6-1.4-7
					s0.5-4.8,1.4-7s2.3-4.2,4-6c1.7-1.7,3.7-3.1,6-4c4.5-1.8,9.6-1.8,14,0c2.2,0.9,4.2,2.2,5.9,4l0.3,0.3l-3.1,3.2l-0.3-0.3
					c-1.3-1.3-2.8-2.3-4.5-3c-3.4-1.4-7.4-1.4-10.7,0c-1.7,0.7-3.2,1.7-4.4,3c-1.3,1.3-2.3,2.7-3,4.4s-1.1,3.5-1.1,5.4
					s0.4,3.7,1.1,5.4c0.7,1.7,1.8,3.2,3,4.4c1.3,1.3,2.7,2.3,4.4,3c3.3,1.4,7.3,1.4,10.7,0c1.7-0.7,3.2-1.7,4.5-3l0.3-0.3l3.1,3.2
					l-0.3,0.3c-1.7,1.7-3.7,3-5.9,4C601,91.4,598.7,91.9,596.2,91.9z M596.2,56.2c-2.3,0-4.5,0.4-6.7,1.3c-2.1,0.9-4,2.1-5.6,3.7
					c-1.6,1.7-2.9,3.6-3.8,5.7c-0.9,2.1-1.3,4.3-1.3,6.6s0.4,4.5,1.3,6.6c0.9,2.1,2.2,4,3.8,5.6c1.6,1.7,3.5,3,5.6,3.8
					c4.3,1.7,9.1,1.7,13.3,0c2-0.8,3.7-1.9,5.3-3.4l-1.8-1.8c-1.3,1.2-2.8,2.2-4.5,2.9c-3.6,1.5-7.9,1.5-11.4,0
					c-1.8-0.8-3.4-1.8-4.7-3.2c-1.3-1.3-2.4-2.9-3.2-4.7c-0.8-1.8-1.2-3.7-1.2-5.8c0-2,0.4-4,1.2-5.8s1.9-3.4,3.2-4.7
					s2.9-2.4,4.7-3.2c3.6-1.5,7.8-1.5,11.4,0c1.6,0.7,3.1,1.6,4.5,2.9l1.8-1.8c-1.5-1.5-3.3-2.6-5.3-3.4
					C600.8,56.6,598.5,56.2,596.2,56.2z"/>
			</g>
			<g>
				<path class="st0" d="M635.4,91.5c-2.4,0-4.7-0.5-6.9-1.4s-4.1-2.2-5.8-3.9c-1.7-1.7-3-3.7-4-5.8c-0.9-2.2-1.4-4.4-1.4-6.8
					s0.5-4.7,1.4-6.9c0.9-2.2,2.2-4.1,4-5.8c1.7-1.7,3.6-3,5.8-3.9s4.5-1.4,6.9-1.4c2.5,0,4.8,0.5,7,1.4s4.1,2.2,5.7,3.8
					c1.6,1.6,2.9,3.5,3.8,5.7c0.9,2.2,1.4,4.5,1.4,7v1.7H621c0.2,1.8,0.8,3.4,1.6,5c0.8,1.5,1.9,2.9,3.1,4c1.3,1.1,2.7,2,4.4,2.7
					s3.4,1,5.2,1c2.6,0,5-0.6,7.2-1.9s4-3,5.3-5.3l3,1.7c-1.5,2.7-3.7,4.8-6.4,6.5C641.7,90.7,638.7,91.5,635.4,91.5z M621,71.9
					h28.7c-0.2-1.8-0.8-3.4-1.6-5s-1.9-2.9-3.1-4.1c-1.3-1.1-2.8-2-4.4-2.7c-1.7-0.7-3.4-1-5.2-1c-1.9,0-3.6,0.3-5.2,1
					c-1.6,0.7-3.1,1.6-4.4,2.7c-1.3,1.1-2.3,2.5-3.2,4.1C621.7,68.4,621.2,70.1,621,71.9z"/>
				<path class="st0" d="M635.4,92c-2.5,0-4.9-0.5-7.1-1.4c-2.2-0.9-4.2-2.3-5.9-4c-1.8-1.8-3.1-3.8-4.1-6c-0.9-2.2-1.4-4.6-1.4-7
					c0-2.5,0.5-4.9,1.4-7.1s2.3-4.2,4.1-6c1.7-1.7,3.7-3.1,5.9-4c4.5-1.9,9.8-1.9,14.2,0c2.2,1,4.2,2.3,5.8,3.9
					c1.7,1.7,3,3.6,3.9,5.9c1,2.2,1.4,4.7,1.4,7.2v2.2h-32.2c0.3,1.5,0.8,2.9,1.5,4.3c0.8,1.5,1.8,2.8,3,3.9s2.6,2,4.2,2.6
					c1.6,0.6,3.3,0.9,5,0.9c2.5,0,4.8-0.6,7-1.9c2.2-1.2,3.9-3,5.1-5.1l0.2-0.4l3.8,2.2l-0.2,0.4c-1.6,2.7-3.8,5-6.6,6.7
					C641.9,91.2,638.8,92,635.4,92z M635.4,56.1c-2.3,0-4.6,0.4-6.7,1.3c-2.1,0.9-4,2.2-5.6,3.8c-1.7,1.7-3,3.6-3.8,5.7
					c-0.9,2.1-1.3,4.4-1.3,6.7c0,2.3,0.4,4.5,1.3,6.6c0.9,2.1,2.2,4,3.8,5.7c1.6,1.6,3.5,2.9,5.6,3.8s4.4,1.3,6.7,1.3
					c3.2,0,6.2-0.8,8.8-2.4c2.5-1.5,4.5-3.5,6-5.9l-2.2-1.3c-1.3,2.1-3.1,3.8-5.2,5c-2.3,1.3-4.8,2-7.4,2c-1.9,0-3.7-0.3-5.4-1
					s-3.2-1.6-4.5-2.8c-1.3-1.2-2.4-2.6-3.2-4.1c-0.9-1.6-1.4-3.3-1.7-5.1l-0.1-0.5h32.3v-1.3c0-2.4-0.5-4.7-1.4-6.8
					c-0.9-2.1-2.2-4-3.7-5.6c-1.6-1.6-3.4-2.8-5.5-3.7C640.1,56.6,637.8,56.1,635.4,56.1z M650.3,72.4h-29.8l0.1-0.5
					c0.2-1.8,0.7-3.6,1.6-5.2c0.9-1.6,2-3,3.3-4.2s2.8-2.1,4.5-2.8c3.3-1.3,7.4-1.4,10.8,0c1.7,0.7,3.2,1.6,4.5,2.8s2.4,2.6,3.3,4.2
					c0.8,1.6,1.4,3.3,1.6,5.2L650.3,72.4z M621.6,71.4h27.6c-0.3-1.5-0.7-3-1.4-4.3c-0.8-1.5-1.8-2.8-3-3.9s-2.7-2-4.3-2.6
					c-3.2-1.3-7-1.2-10.1,0c-1.6,0.6-3,1.5-4.2,2.6s-2.3,2.4-3.1,3.9C622.3,68.5,621.8,69.9,621.6,71.4z"/>
			</g>
		</g>
		<polygon class="st0" points="378.7,40.2 382.4,40.2 381.7,57.2 379,57.2 		"/>
	</g>
	<g>
		<g>
			<path class="st0" d="M117.5,174.8c-0.3,0-0.6,0-0.8,0c-0.2,0-0.5,0-0.7,0c-2.5-0.1-5-0.4-7.4-1c-2.5-0.6-4.8-1.5-7.1-2.7
				c-2.3-1.2-4.3-2.6-6-4.2c-1.7-1.6-3-3.3-4-5.1l4.1-2.1c1.5,2.9,4.1,5.3,8,7.4c1.9,1,3.9,1.8,6,2.4c2.1,0.5,4.3,0.8,6.4,0.8h0.1
				c1.8,0.1,4-0.1,6.5-0.5c2.5-0.5,5-1.4,7.3-2.7c2.3-1.3,4.4-3,6.1-5.1c1.7-2.1,2.7-4.7,3-7.8c0.3-3.7-0.7-6.8-2.9-9.2
				c-1.8-1.9-4.4-3.5-7.7-4.5c-3.3-1.1-7-1.6-11.2-1.6c-1,0-2.4-0.1-4.1-0.2c-1.7-0.2-3.5-0.5-5.3-0.9c-1.9-0.5-3.8-1.1-5.7-2
				c-1.9-0.9-3.6-2.1-5-3.6c-2.9-3.2-4.2-7.1-4-11.7c0.2-4.8,1.9-8.7,5.1-12c2.9-2.7,6.5-4.6,10.8-5.7c2.7-0.7,5.6-0.9,8.5-0.8
				c3,0.2,5.8,0.7,8.6,1.5c2.9,0.9,5.5,2.1,7.7,3.7c2.2,1.6,3.9,3.4,5,5.4l-4,2.3c-0.9-1.6-2.1-3-3.9-4.2c-1.7-1.2-3.8-2.1-6.2-2.9
				c-2.4-0.7-4.8-1.2-7.4-1.3c-2.6-0.1-5,0.1-7.3,0.6c-1.1,0.2-2.3,0.6-3.7,1.2c-1.4,0.5-2.7,1.3-3.9,2.4c-1.2,1-2.3,2.4-3.2,4
				c-0.9,1.6-1.4,3.6-1.6,5.9c-0.2,3.4,0.8,6.2,2.8,8.2c1.2,1.2,2.6,2.2,4.2,2.9s3.3,1.3,4.9,1.6c1.6,0.4,3.1,0.6,4.5,0.7
				c1.4,0.1,2.4,0.1,3.1,0.1c4.9,0,9.3,0.6,13.1,1.9c3.8,1.3,6.8,3.2,9.1,5.7c3.2,3.5,4.6,7.7,4.2,12.7c-0.2,3.7-1.5,7-3.7,10
				c-1.8,2.5-4.2,4.6-7.4,6.4c-2.6,1.5-5.3,2.5-8,3.1C121.9,174.5,119.6,174.8,117.5,174.8z"/>
			<path class="st0" d="M179.8,133.4h-9.4v40.1h-4.6v-40.1h-6.9v-4.6h6.9v-27.6h4.6v27.6h9.4V133.4z"/>
			<path class="st0" d="M285.9,128.4c4.1,0,7.6,1,10.7,3l-2.6,3.7c-2.2-1.5-4.9-2.2-8.1-2.2c-6.5,0-11,2.9-13.4,8.7
				c-0.5,1.1-1,2.6-1.4,4.5s-0.7,4.3-0.7,7.2v20.2h-0.1v0.1h-4.6v-43.9h4.6v6.4C273.8,131,279,128.4,285.9,128.4z"/>
			<path class="st0" d="M372.6,133.6c1.8,1.8,3.1,3.8,4,6.1s1.4,4.7,1.4,7.2v26.8h-4.6v-26.8c0-2-0.4-3.8-1.1-5.5s-1.7-3.2-3-4.5
				s-2.7-2.3-4.4-3.1c-1.7-0.8-3.5-1.1-5.3-1.1c-1.9,0-3.7,0.4-5.3,1.1c-1.7,0.8-3.1,1.8-4.4,3.1c-1.2,1.3-2.2,2.8-3,4.5
				c-0.7,1.7-1.1,3.5-1.1,5.5v26.8h-4.6v-26.8c0-2-0.4-3.8-1.1-5.5s-1.7-3.2-3-4.5c-1.2-1.3-2.7-2.3-4.4-3.1
				c-1.7-0.8-3.5-1.1-5.3-1.1c-1.9,0-3.7,0.4-5.3,1.1c-1.7,0.8-3.1,1.8-4.4,3.1c-1.2,1.3-2.2,2.8-3,4.5c-0.7,1.7-1.1,3.5-1.1,5.5
				v26.8H309v-26.8v-17.1h4.6v4.8c0.4-0.4,0.6-0.7,0.8-0.9c1.8-1.8,3.7-3.1,5.9-4.1c2.2-0.9,4.5-1.4,7-1.4s4.8,0.5,7,1.4
				s4.2,2.3,5.9,4.1c0.7,0.7,1.2,1.4,1.7,2.1c0.5,0.7,0.9,1.4,1.4,2.1c0.4-0.7,0.9-1.4,1.4-2.1c0.5-0.7,1.1-1.4,1.7-2.1
				c1.8-1.8,3.7-3.1,5.9-4.1c2.2-0.9,4.5-1.4,7-1.4s4.8,0.5,7,1.4C368.9,130.5,370.9,131.8,372.6,133.6z"/>
		</g>
		<g>
			<path class="st0" d="M431.7,173.6V103h4.6v70.6H431.7z"/>
			<path class="st0" d="M518.7,133.6c1.8,1.8,3.1,3.8,4,6.1s1.4,4.7,1.4,7.2v26.8h-4.6v-26.8c0-2-0.4-3.8-1.1-5.5
				c-0.7-1.7-1.7-3.2-3-4.5s-2.7-2.3-4.4-3.1c-1.7-0.8-3.5-1.1-5.3-1.1c-1.9,0-3.7,0.4-5.3,1.1c-1.7,0.8-3.1,1.8-4.4,3.1
				c-1.2,1.3-2.2,2.8-3,4.5c-0.7,1.7-1.1,3.5-1.1,5.5v26.8h-4.6v-26.8c0-2-0.4-3.8-1.1-5.5s-1.7-3.2-3-4.5c-1.2-1.3-2.7-2.3-4.4-3.1
				c-1.7-0.8-3.5-1.1-5.3-1.1c-1.9,0-3.7,0.4-5.3,1.1c-1.7,0.8-3.1,1.8-4.4,3.1c-1.2,1.3-2.2,2.8-3,4.5c-0.7,1.7-1.1,3.5-1.1,5.5
				v26.8h-4.6v-26.8v-17.1h4.6v4.8c0.4-0.4,0.6-0.7,0.8-0.9c1.8-1.8,3.7-3.1,5.9-4.1c2.2-0.9,4.5-1.4,7-1.4s4.8,0.5,7,1.4
				s4.2,2.3,5.9,4.1c0.7,0.7,1.2,1.4,1.7,2.1c0.5,0.7,0.9,1.4,1.4,2.1c0.4-0.7,0.9-1.4,1.4-2.1c0.5-0.7,1.1-1.4,1.7-2.1
				c1.8-1.8,3.7-3.1,5.9-4.1c2.2-0.9,4.5-1.4,7-1.4s4.8,0.5,7,1.4C515,130.5,516.9,131.8,518.7,133.6z"/>
			<path class="st0" d="M605.7,133.6c1.8,1.8,3.1,3.8,4,6.1s1.4,4.7,1.4,7.2v26.8h-4.6v-26.8c0-2-0.4-3.8-1.1-5.5
				c-0.7-1.7-1.7-3.2-3-4.5s-2.7-2.3-4.4-3.1s-3.5-1.1-5.3-1.1c-1.9,0-3.7,0.4-5.3,1.1c-1.7,0.8-3.1,1.8-4.4,3.1
				c-1.2,1.3-2.2,2.8-3,4.5c-0.7,1.7-1.1,3.5-1.1,5.5v26.8h-4.6v-26.8c0-2-0.4-3.8-1.1-5.5c-0.7-1.7-1.7-3.2-3-4.5
				c-1.2-1.3-2.7-2.3-4.4-3.1s-3.5-1.1-5.3-1.1c-1.9,0-3.7,0.4-5.3,1.1c-1.7,0.8-3.1,1.8-4.4,3.1c-1.2,1.3-2.2,2.8-3,4.5
				c-0.7,1.7-1.1,3.5-1.1,5.5v26.8h-4.6v-26.8v-17.1h4.6v4.8c0.4-0.4,0.6-0.7,0.8-0.9c1.8-1.8,3.7-3.1,5.9-4.1
				c2.2-0.9,4.5-1.4,7-1.4s4.8,0.5,7,1.4s4.2,2.3,5.9,4.1c0.7,0.7,1.2,1.4,1.7,2.1c0.5,0.7,0.9,1.4,1.4,2.1c0.4-0.7,0.9-1.4,1.4-2.1
				c0.5-0.7,1.1-1.4,1.7-2.1c1.8-1.8,3.7-3.1,5.9-4.1c2.2-0.9,4.5-1.4,7-1.4s4.8,0.5,7,1.4C602,130.5,604,131.8,605.7,133.6z"/>
			<path class="st0" d="M650.1,175.1c-3.1,0-6.1-0.6-9-1.8s-5.4-2.9-7.6-5.1c-2.2-2.2-3.9-4.7-5.1-7.6c-1.2-2.9-1.8-5.8-1.8-9
				s0.6-6.1,1.8-9s2.9-5.4,5.1-7.6c2.2-2.2,4.7-3.9,7.6-5.1c2.9-1.2,5.8-1.8,9-1.8c3.1,0,6.1,0.6,9,1.8s5.4,2.9,7.6,5.1
				c2.2,2.2,3.9,4.7,5.1,7.6c1.2,2.9,1.8,5.8,1.8,9s-0.6,6.1-1.8,9s-2.9,5.4-5.1,7.6c-2.2,2.2-4.7,3.9-7.6,5.1
				C656.2,174.5,653.2,175.1,650.1,175.1z M650.1,132.9c-2.6,0-5.1,0.5-7.4,1.5c-2.3,1-4.3,2.3-6,4s-3,3.7-4,6s-1.5,4.7-1.5,7.4
				c0,2.6,0.5,5.1,1.5,7.4c1,2.3,2.3,4.3,4,6s3.7,3,6,4s4.7,1.5,7.4,1.5c2.6,0,5.1-0.5,7.4-1.5c2.3-1,4.3-2.3,6-4s3-3.7,4-6
				s1.5-4.7,1.5-7.4c0-2.6-0.5-5.1-1.5-7.4c-1-2.3-2.3-4.3-4-6s-3.7-3-6-4S652.8,132.9,650.1,132.9z"/>
			<path class="st0" d="M689.2,101.2h4.6v34.2l0.1-0.1c2.3-2.2,4.8-3.9,7.6-5.1c2.8-1.2,5.8-1.8,8.9-1.8c3.1,0,6.1,0.6,8.9,1.8
				c2.8,1.2,5.3,2.9,7.5,5.1c2.2,2.2,3.9,4.7,5.1,7.5c1.2,2.8,1.8,5.8,1.8,8.9c0,3.1-0.6,6.1-1.8,8.9c-1.2,2.8-2.9,5.3-5.1,7.6
				c-2.2,2.2-4.7,3.9-7.5,5c-2.8,1.2-5.8,1.7-8.9,1.7c-3.1,0-6.1-0.6-8.9-1.7c-2.8-1.2-5.3-2.8-7.6-5c0-0.1,0-0.1-0.1-0.2v5.6h-4.6
				V101.2z M710.3,170.4c2.6,0,5-0.5,7.3-1.5s4.3-2.3,6-4s3-3.7,4-5.9c1-2.3,1.5-4.7,1.5-7.2s-0.5-5-1.5-7.3s-2.3-4.3-4-6
				s-3.7-3-6-4s-4.7-1.5-7.3-1.5c-3.6,0-6.9,0.9-9.8,2.8c-2.9,1.9-5.2,4.3-6.8,7.3v17.3c1.6,3,3.8,5.4,6.8,7.3
				C703.4,169.5,706.7,170.4,710.3,170.4z"/>
			<path class="st0" d="M755.2,115.9c0,1-0.4,1.9-1.1,2.7c-0.8,0.8-1.7,1.1-2.7,1.1s-1.9-0.4-2.7-1.1c-0.8-0.8-1.1-1.7-1.1-2.7
				s0.4-1.9,1.1-2.7c0.8-0.8,1.7-1.1,2.7-1.1s1.9,0.4,2.7,1.1S755.2,114.8,755.2,115.9z M753.7,173.6h-4.6v-43.9h4.6V173.6z"/>
			<path class="st0" d="M771.7,173.6v-72.4h4.6v72.4H771.7z"/>
			<path class="st0" d="M800.4,115.9c0,1-0.4,1.9-1.1,2.7c-0.8,0.8-1.7,1.1-2.7,1.1s-1.9-0.4-2.7-1.1c-0.8-0.8-1.1-1.7-1.1-2.7
				s0.4-1.9,1.1-2.7c0.8-0.8,1.7-1.1,2.7-1.1s1.9,0.4,2.7,1.1C800,113.9,800.4,114.8,800.4,115.9z M798.8,173.6h-4.6v-43.9h4.6
				V173.6z"/>
			<path class="st0" d="M837.9,175.2c-3.2,0-6.2-0.6-9-1.8s-5.3-2.9-7.5-5.1c-2.3-2.3-4-4.8-5.2-7.6s-1.8-5.8-1.8-8.9
				c0-3.2,0.6-6.2,1.8-9s2.9-5.4,5.2-7.6c2.2-2.2,4.7-3.9,7.5-5.1c2.8-1.2,5.8-1.8,9-1.8s6.3,0.6,9.1,1.8s5.3,2.9,7.4,5
				c2.1,2.1,3.8,4.6,5,7.5s1.8,5.9,1.8,9.1v2.3h-42.1c0.3,2.3,1,4.5,2.1,6.5s2.5,3.8,4.1,5.3s3.5,2.7,5.7,3.5
				c2.2,0.9,4.4,1.3,6.8,1.3c3.3,0,6.5-0.8,9.4-2.5s5.2-4,6.9-6.9l3.9,2.3c-2,3.5-4.8,6.3-8.4,8.5
				C846.1,174.1,842.2,175.2,837.9,175.2z M819.1,149.5h37.5c-0.3-2.3-1-4.5-2.1-6.5s-2.4-3.8-4.1-5.3c-1.7-1.5-3.6-2.7-5.8-3.5
				c-2.2-0.9-4.4-1.3-6.8-1.3c-2.4,0-4.7,0.4-6.9,1.3c-2.1,0.9-4,2-5.7,3.5s-3.1,3.3-4.2,5.3C820,145,819.4,147.2,819.1,149.5z"/>
			<path class="st0" d="M897.8,128.4c4.1,0,7.6,1,10.7,3l-2.6,3.7c-2.2-1.5-4.9-2.2-8.1-2.2c-6.5,0-11,2.9-13.4,8.7
				c-0.5,1.1-1,2.6-1.4,4.5s-0.7,4.3-0.7,7.2v20.2h-0.1v0.1h-4.6v-43.9h4.6v6.4C885.7,131,890.9,128.4,897.8,128.4z"/>
		</g>
		<path class="st1" d="M244.9,178.7c5.9-10.2,9.4-19.9,9.2-20c-3.8,6-7.4,10.8-10.8,14.7c-10.6-36.5-19.7-61.2-19.9-61.8
			c-6.1-18.6-11.9-25.5-15.5-28c-1.9-1.4-4.6-0.9-6,1c-14.5,21,2.1,89,2.1,89c-5.3-48.8,1.5-59.2,4.1-61.4c0.5-0.5,1.2-0.7,1.9-0.6
			c9.6,1.3,23,35.6,32.2,62.9c-25.8,29-37.5,2.1-37.5,2.1c1.3,13.5,5.1,19.7,8.6,22.6c3,2.4,7.1,2.8,10.7,1.4
			c7.8-3,14.8-11.8,20-20.7c5.2,16,8.8,28.4,8.8,28.2C250.3,197.8,247.6,187.9,244.9,178.7z"/>
	</g>
	<rect x="94" y="67.7" class="st0" width="221.3" height="3.8"/>
	<rect x="682.1" y="67.7" class="st0" width="221.3" height="3.8"/>
</g>
</svg>
